<svg id="visual" viewBox="0 0 900 200" width="900" height="200" xmlns="http://www.w3.org/2000/svg" xmlns:xlink="http://www.w3.org/1999/xlink" version="1.1"><path d="M0 23L11.5 26C23 29 46 35 69 35.7C92 36.3 115 31.7 138.2 29.3C161.3 27 184.7 27 207.8 28.3C231 29.7 254 32.3 277 33.7C300 35 323 35 346 32.3C369 29.7 392 24.3 415.2 23.7C438.3 23 461.7 27 484.8 29.7C508 32.3 531 33.7 554 32C577 30.3 600 25.7 623 25.3C646 25 669 29 692.2 29.3C715.3 29.7 738.7 26.3 761.8 24.7C785 23 808 23 831 21.7C854 20.3 877 17.7 888.5 16.3L900 15L900 0L888.5 0C877 0 854 0 831 0C808 0 785 0 761.8 0C738.7 0 715.3 0 692.2 0C669 0 646 0 623 0C600 0 577 0 554 0C531 0 508 0 484.8 0C461.7 0 438.3 0 415.2 0C392 0 369 0 346 0C323 0 300 0 277 0C254 0 231 0 207.8 0C184.7 0 161.3 0 138.2 0C115 0 92 0 69 0C46 0 23 0 11.5 0L0 0Z" fill="#5580e9"></path><path d="M0 37L11.5 39C23 41 46 45 69 48.7C92 52.3 115 55.7 138.2 54C161.3 52.3 184.7 45.7 207.8 45.7C231 45.7 254 52.3 277 55.7C300 59 323 59 346 54.7C369 50.3 392 41.7 415.2 43C438.3 44.3 461.7 55.7 484.8 61C508 66.3 531 65.7 554 61.7C577 57.7 600 50.3 623 48.7C646 47 669 51 692.2 50C715.3 49 738.7 43 761.8 43C785 43 808 49 831 50.3C854 51.7 877 48.3 888.5 46.7L900 45L900 13L888.5 14.3C877 15.7 854 18.3 831 19.7C808 21 785 21 761.8 22.7C738.7 24.3 715.3 27.7 692.2 27.3C669 27 646 23 623 23.3C600 23.7 577 28.3 554 30C531 31.7 508 30.3 484.8 27.7C461.7 25 438.3 21 415.2 21.7C392 22.3 369 27.7 346 30.3C323 33 300 33 277 31.7C254 30.3 231 27.7 207.8 26.3C184.7 25 161.3 25 138.2 27.3C115 29.7 92 34.3 69 33.7C46 33 23 27 11.5 24L0 21Z" fill="#498ded"></path><path d="M0 107L11.5 110.7C23 114.3 46 121.7 69 125.7C92 129.7 115 130.3 138.2 119.3C161.3 108.3 184.7 85.7 207.8 83.7C231 81.7 254 100.3 277 108.7C300 117 323 115 346 106.7C369 98.3 392 83.7 415.2 85C438.3 86.3 461.7 103.7 484.8 114.3C508 125 531 129 554 122.3C577 115.7 600 98.3 623 92C646 85.7 669 90.3 692.2 95.7C715.3 101 738.7 107 761.8 108.7C785 110.3 808 107.7 831 106.3C854 105 877 105 888.5 105L900 105L900 43L888.5 44.7C877 46.3 854 49.7 831 48.3C808 47 785 41 761.8 41C738.7 41 715.3 47 692.2 48C669 49 646 45 623 46.7C600 48.3 577 55.7 554 59.7C531 63.7 508 64.3 484.8 59C461.7 53.7 438.3 42.3 415.2 41C392 39.7 369 48.3 346 52.7C323 57 300 57 277 53.7C254 50.3 231 43.7 207.8 43.7C184.7 43.7 161.3 50.3 138.2 52C115 53.7 92 50.3 69 46.7C46 43 23 39 11.5 37L0 35Z" fill="#439af0"></path><path d="M0 121L11.5 125.3C23 129.7 46 138.3 69 141C92 143.7 115 140.3 138.2 129.7C161.3 119 184.7 101 207.8 101C231 101 254 119 277 126.3C300 133.7 323 130.3 346 120.3C369 110.3 392 93.7 415.2 94C438.3 94.3 461.7 111.7 484.8 122C508 132.3 531 135.7 554 131C577 126.3 600 113.7 623 108C646 102.3 669 103.7 692.2 106.3C715.3 109 738.7 113 761.8 116C785 119 808 121 831 121.7C854 122.3 877 121.7 888.5 121.3L900 121L900 103L888.5 103C877 103 854 103 831 104.3C808 105.7 785 108.3 761.8 106.7C738.7 105 715.3 99 692.2 93.7C669 88.3 646 83.7 623 90C600 96.3 577 113.7 554 120.3C531 127 508 123 484.8 112.3C461.7 101.7 438.3 84.3 415.2 83C392 81.7 369 96.3 346 104.7C323 113 300 115 277 106.7C254 98.3 231 79.7 207.8 81.7C184.7 83.7 161.3 106.3 138.2 117.3C115 128.3 92 127.7 69 123.7C46 119.7 23 112.3 11.5 108.7L0 105Z" fill="#46a5f0"></path><path d="M0 131L11.5 135.3C23 139.7 46 148.3 69 154.3C92 160.3 115 163.7 138.2 153C161.3 142.3 184.7 117.7 207.8 115C231 112.3 254 131.7 277 140.7C300 149.7 323 148.3 346 141C369 133.7 392 120.3 415.2 119.7C438.3 119 461.7 131 484.8 138.7C508 146.3 531 149.7 554 146C577 142.3 600 131.7 623 125C646 118.3 669 115.7 692.2 119.3C715.3 123 738.7 133 761.8 138.3C785 143.7 808 144.3 831 142.7C854 141 877 137 888.5 135L900 133L900 119L888.5 119.3C877 119.7 854 120.3 831 119.7C808 119 785 117 761.8 114C738.7 111 715.3 107 692.2 104.3C669 101.7 646 100.3 623 106C600 111.7 577 124.3 554 129C531 133.7 508 130.3 484.8 120C461.7 109.7 438.3 92.3 415.2 92C392 91.7 369 108.3 346 118.3C323 128.3 300 131.7 277 124.3C254 117 231 99 207.8 99C184.7 99 161.3 117 138.2 127.7C115 138.3 92 141.7 69 139C46 136.3 23 127.7 11.5 123.3L0 119Z" fill="#50b0f0"></path><path d="M0 167L11.5 168.7C23 170.3 46 173.7 69 176.3C92 179 115 181 138.2 179.3C161.3 177.7 184.7 172.3 207.8 170.3C231 168.3 254 169.7 277 169.7C300 169.7 323 168.3 346 168C369 167.7 392 168.3 415.2 169.3C438.3 170.3 461.7 171.7 484.8 173C508 174.3 531 175.7 554 176.3C577 177 600 177 623 175.7C646 174.3 669 171.7 692.2 170C715.3 168.3 738.7 167.7 761.8 169.3C785 171 808 175 831 174C854 173 877 167 888.5 164L900 161L900 131L888.5 133C877 135 854 139 831 140.7C808 142.3 785 141.7 761.8 136.3C738.7 131 715.3 121 692.2 117.3C669 113.7 646 116.3 623 123C600 129.7 577 140.3 554 144C531 147.7 508 144.3 484.8 136.7C461.7 129 438.3 117 415.2 117.7C392 118.3 369 131.7 346 139C323 146.3 300 147.7 277 138.7C254 129.7 231 110.3 207.8 113C184.7 115.7 161.3 140.3 138.2 151C115 161.7 92 158.3 69 152.3C46 146.3 23 137.7 11.5 133.3L0 129Z" fill="#5fbaee"></path><path d="M0 187L11.5 187.3C23 187.7 46 188.3 69 189.3C92 190.3 115 191.7 138.2 190.7C161.3 189.7 184.7 186.3 207.8 184.7C231 183 254 183 277 181.7C300 180.3 323 177.7 346 178.3C369 179 392 183 415.2 183.7C438.3 184.3 461.7 181.7 484.8 183C508 184.3 531 189.7 554 190.7C577 191.7 600 188.3 623 187.7C646 187 669 189 692.2 187.3C715.3 185.7 738.7 180.3 761.8 179.3C785 178.3 808 181.7 831 182.7C854 183.7 877 182.3 888.5 181.7L900 181L900 159L888.5 162C877 165 854 171 831 172C808 173 785 169 761.8 167.3C738.7 165.7 715.3 166.3 692.2 168C669 169.7 646 172.3 623 173.7C600 175 577 175 554 174.3C531 173.7 508 172.3 484.8 171C461.7 169.7 438.3 168.3 415.2 167.3C392 166.3 369 165.7 346 166C323 166.3 300 167.7 277 167.7C254 167.7 231 166.3 207.8 168.3C184.7 170.3 161.3 175.7 138.2 177.3C115 179 92 177 69 174.3C46 171.7 23 168.3 11.5 166.7L0 165Z" fill="#71c4ed"></path><path d="M0 201L11.5 201C23 201 46 201 69 201C92 201 115 201 138.2 201C161.3 201 184.7 201 207.8 201C231 201 254 201 277 201C300 201 323 201 346 201C369 201 392 201 415.2 201C438.3 201 461.7 201 484.8 201C508 201 531 201 554 201C577 201 600 201 623 201C646 201 669 201 692.2 201C715.3 201 738.7 201 761.8 201C785 201 808 201 831 201C854 201 877 201 888.5 201L900 201L900 179L888.5 179.7C877 180.3 854 181.7 831 180.7C808 179.7 785 176.3 761.8 177.3C738.7 178.3 715.3 183.7 692.2 185.3C669 187 646 185 623 185.7C600 186.3 577 189.7 554 188.7C531 187.7 508 182.3 484.8 181C461.7 179.7 438.3 182.3 415.2 181.7C392 181 369 177 346 176.3C323 175.7 300 178.3 277 179.7C254 181 231 181 207.8 182.7C184.7 184.3 161.3 187.7 138.2 188.7C115 189.7 92 188.3 69 187.3C46 186.3 23 185.7 11.5 185.3L0 185Z" fill="#84cdeb"></path></svg>