<svg id="visual" viewBox="0 0 900 200" width="900" height="200" xmlns="http://www.w3.org/2000/svg" xmlns:xlink="http://www.w3.org/1999/xlink" version="1.1"><path d="M0 9L56 21L113 9L169 17L225 7L281 23L338 33L394 27L450 19L506 7L563 11L619 7L675 25L731 23L788 29L844 13L900 15L900 0L844 0L788 0L731 0L675 0L619 0L563 0L506 0L450 0L394 0L338 0L281 0L225 0L169 0L113 0L56 0L0 0Z" fill="#5ab8eb"></path><path d="M0 47L56 69L113 25L169 67L225 49L281 37L338 59L394 61L450 41L506 39L563 51L619 27L675 55L731 55L788 49L844 45L900 49L900 13L844 11L788 27L731 21L675 23L619 5L563 9L506 5L450 17L394 25L338 31L281 21L225 5L169 15L113 7L56 19L0 7Z" fill="#4daaed"></path><path d="M0 121L56 121L113 99L169 133L225 67L281 85L338 107L394 73L450 101L506 73L563 117L619 127L675 97L731 115L788 131L844 77L900 109L900 47L844 43L788 47L731 53L675 53L619 25L563 49L506 37L450 39L394 59L338 57L281 35L225 47L169 65L113 23L56 67L0 45Z" fill="#4f9aed"></path><path d="M0 145L56 149L113 131L169 139L225 87L281 95L338 129L394 95L450 121L506 79L563 139L619 151L675 113L731 123L788 163L844 83L900 123L900 107L844 75L788 129L731 113L675 95L619 125L563 115L506 71L450 99L394 71L338 105L281 83L225 65L169 131L113 97L56 119L0 119Z" fill="#5e89e8"></path><path d="M0 163L56 169L113 167L169 187L225 129L281 127L338 155L394 123L450 161L506 125L563 181L619 165L675 151L731 165L788 175L844 119L900 157L900 121L844 81L788 161L731 121L675 111L619 149L563 137L506 77L450 119L394 93L338 127L281 93L225 85L169 137L113 129L56 147L0 143Z" fill="#7276df"></path><path d="M0 201L56 201L113 201L169 201L225 201L281 201L338 201L394 201L450 201L506 201L563 201L619 201L675 201L731 201L788 201L844 201L900 201L900 155L844 117L788 173L731 163L675 149L619 163L563 179L506 123L450 159L394 121L338 153L281 125L225 127L169 185L113 165L56 167L0 161Z" fill="#8860d0"></path></svg>