<svg id="visual" viewBox="0 0 960 200" width="960" height="200" xmlns="http://www.w3.org/2000/svg" xmlns:xlink="http://www.w3.org/1999/xlink" version="1.1"><path d="M0 77L60 37L120 41L180 41L240 77L300 89L360 77L420 89L480 41L540 43L600 45L660 83L720 35L780 51L840 73L900 67L960 51L960 0L900 0L840 0L780 0L720 0L660 0L600 0L540 0L480 0L420 0L360 0L300 0L240 0L180 0L120 0L60 0L0 0Z" fill="#0095ff"></path><path d="M0 101L60 55L120 59L180 67L240 101L300 123L360 95L420 107L480 53L540 67L600 75L660 103L720 51L780 65L840 91L900 97L960 79L960 49L900 65L840 71L780 49L720 33L660 81L600 43L540 41L480 39L420 87L360 75L300 87L240 75L180 39L120 39L60 35L0 75Z" fill="#0082ff"></path><path d="M0 135L60 155L120 123L180 135L240 139L300 155L360 141L420 139L480 139L540 133L600 129L660 143L720 151L780 127L840 137L900 163L960 129L960 77L900 95L840 89L780 63L720 49L660 101L600 73L540 65L480 51L420 105L360 93L300 121L240 99L180 65L120 57L60 53L0 99Z" fill="#006cff"></path><path d="M0 171L60 185L120 167L180 165L240 163L300 189L360 159L420 177L480 163L540 161L600 165L660 179L720 175L780 167L840 175L900 185L960 179L960 127L900 161L840 135L780 125L720 149L660 141L600 127L540 131L480 137L420 137L360 139L300 153L240 137L180 133L120 121L60 153L0 133Z" fill="#2052ff"></path><path d="M0 201L60 201L120 201L180 201L240 201L300 201L360 201L420 201L480 201L540 201L600 201L660 201L720 201L780 201L840 201L900 201L960 201L960 177L900 183L840 173L780 165L720 173L660 177L600 163L540 159L480 161L420 175L360 157L300 187L240 161L180 163L120 165L60 183L0 169Z" fill="#4a28ff"></path></svg>