<svg id="visual" viewBox="0 0 960 200" width="960" height="200" xmlns="http://www.w3.org/2000/svg" xmlns:xlink="http://www.w3.org/1999/xlink" version="1.1"><path d="M0 39L87 39L87 65L175 65L175 73L262 73L262 61L349 61L349 57L436 57L436 37L524 37L524 43L611 43L611 61L698 61L698 55L785 55L785 89L873 89L873 45L960 45L960 59L960 0L960 0L873 0L873 0L785 0L785 0L698 0L698 0L611 0L611 0L524 0L524 0L436 0L436 0L349 0L349 0L262 0L262 0L175 0L175 0L87 0L87 0L0 0Z" fill="#0095ff"></path><path d="M0 73L87 73L87 89L175 89L175 87L262 87L262 79L349 79L349 83L436 83L436 69L524 69L524 63L611 63L611 85L698 85L698 69L785 69L785 107L873 107L873 59L960 59L960 89L960 57L960 43L873 43L873 87L785 87L785 53L698 53L698 59L611 59L611 41L524 41L524 35L436 35L436 55L349 55L349 59L262 59L262 71L175 71L175 63L87 63L87 37L0 37Z" fill="#0082ff"></path><path d="M0 157L87 157L87 123L175 123L175 145L262 145L262 131L349 131L349 133L436 133L436 135L524 135L524 145L611 145L611 121L698 121L698 165L785 165L785 147L873 147L873 125L960 125L960 137L960 87L960 57L873 57L873 105L785 105L785 67L698 67L698 83L611 83L611 61L524 61L524 67L436 67L436 81L349 81L349 77L262 77L262 85L175 85L175 87L87 87L87 71L0 71Z" fill="#006cff"></path><path d="M0 169L87 169L87 155L175 155L175 161L262 161L262 147L349 147L349 163L436 163L436 165L524 165L524 175L611 175L611 149L698 149L698 181L785 181L785 173L873 173L873 153L960 153L960 155L960 135L960 123L873 123L873 145L785 145L785 163L698 163L698 119L611 119L611 143L524 143L524 133L436 133L436 131L349 131L349 129L262 129L262 143L175 143L175 121L87 121L87 155L0 155Z" fill="#2052ff"></path><path d="M0 201L87 201L87 201L175 201L175 201L262 201L262 201L349 201L349 201L436 201L436 201L524 201L524 201L611 201L611 201L698 201L698 201L785 201L785 201L873 201L873 201L960 201L960 201L960 153L960 151L873 151L873 171L785 171L785 179L698 179L698 147L611 147L611 173L524 173L524 163L436 163L436 161L349 161L349 145L262 145L262 159L175 159L175 153L87 153L87 167L0 167Z" fill="#4a28ff"></path></svg>