<svg id="visual" viewBox="0 0 900 200" width="900" height="200" xmlns="http://www.w3.org/2000/svg" xmlns:xlink="http://www.w3.org/1999/xlink" version="1.1"><path d="M0 71L11.5 69C23 67 46 63 69 66C92 69 115 79 138.2 85C161.3 91 184.7 93 207.8 88.3C231 83.7 254 72.3 277 63.3C300 54.3 323 47.7 346 44C369 40.3 392 39.7 415.2 46.7C438.3 53.7 461.7 68.3 484.8 73.3C508 78.3 531 73.7 554 72.3C577 71 600 73 623 69.7C646 66.3 669 57.7 692.2 52C715.3 46.3 738.7 43.7 761.8 56.3C785 69 808 97 831 106.7C854 116.3 877 107.7 888.5 103.3L900 99L900 0L888.5 0C877 0 854 0 831 0C808 0 785 0 761.8 0C738.7 0 715.3 0 692.2 0C669 0 646 0 623 0C600 0 577 0 554 0C531 0 508 0 484.8 0C461.7 0 438.3 0 415.2 0C392 0 369 0 346 0C323 0 300 0 277 0C254 0 231 0 207.8 0C184.7 0 161.3 0 138.2 0C115 0 92 0 69 0C46 0 23 0 11.5 0L0 0Z" fill="#82cae8"></path><path d="M0 149L11.5 148C23 147 46 145 69 148.3C92 151.7 115 160.3 138.2 159.3C161.3 158.3 184.7 147.7 207.8 141C231 134.3 254 131.7 277 134C300 136.3 323 143.7 346 144C369 144.3 392 137.7 415.2 133.7C438.3 129.7 461.7 128.3 484.8 132.7C508 137 531 147 554 147.7C577 148.3 600 139.7 623 135.7C646 131.7 669 132.3 692.2 131.3C715.3 130.3 738.7 127.7 761.8 134.3C785 141 808 157 831 162.7C854 168.3 877 163.7 888.5 161.3L900 159L900 97L888.5 101.3C877 105.7 854 114.3 831 104.7C808 95 785 67 761.8 54.3C738.7 41.7 715.3 44.3 692.2 50C669 55.7 646 64.3 623 67.7C600 71 577 69 554 70.3C531 71.7 508 76.3 484.8 71.3C461.7 66.3 438.3 51.7 415.2 44.7C392 37.7 369 38.3 346 42C323 45.7 300 52.3 277 61.3C254 70.3 231 81.7 207.8 86.3C184.7 91 161.3 89 138.2 83C115 77 92 67 69 64C46 61 23 65 11.5 67L0 69Z" fill="#6ec1e9"></path><path d="M0 201L11.5 201C23 201 46 201 69 201C92 201 115 201 138.2 201C161.3 201 184.7 201 207.8 201C231 201 254 201 277 201C300 201 323 201 346 201C369 201 392 201 415.2 201C438.3 201 461.7 201 484.8 201C508 201 531 201 554 201C577 201 600 201 623 201C646 201 669 201 692.2 201C715.3 201 738.7 201 761.8 201C785 201 808 201 831 201C854 201 877 201 888.5 201L900 201L900 157L888.5 159.3C877 161.7 854 166.3 831 160.7C808 155 785 139 761.8 132.3C738.7 125.7 715.3 128.3 692.2 129.3C669 130.3 646 129.7 623 133.7C600 137.7 577 146.3 554 145.7C531 145 508 135 484.8 130.7C461.7 126.3 438.3 127.7 415.2 131.7C392 135.7 369 142.3 346 142C323 141.7 300 134.3 277 132C254 129.7 231 132.3 207.8 139C184.7 145.7 161.3 156.3 138.2 157.3C115 158.3 92 149.7 69 146.3C46 143 23 145 11.5 146L0 147Z" fill="#5ab8eb"></path></svg>