<svg id="visual" viewBox="0 0 960 200" width="960" height="200" xmlns="http://www.w3.org/2000/svg" xmlns:xlink="http://www.w3.org/1999/xlink" version="1.1"><path d="M0 39L7.3 38.3C14.7 37.7 29.3 36.3 43.8 36C58.3 35.7 72.7 36.3 87.2 42C101.7 47.7 116.3 58.3 131 56.7C145.7 55 160.3 41 174.8 37C189.3 33 203.7 39 218.2 42C232.7 45 247.3 45 261.8 42.3C276.3 39.7 290.7 34.3 305.2 29C319.7 23.7 334.3 18.3 349 14.7C363.7 11 378.3 9 392.8 9.3C407.3 9.7 421.7 12.3 436.2 24C450.7 35.7 465.3 56.3 480 61.3C494.7 66.3 509.3 55.7 523.8 52.3C538.3 49 552.7 53 567.2 54.3C581.7 55.7 596.3 54.3 611 46C625.7 37.7 640.3 22.3 654.8 19.3C669.3 16.3 683.7 25.7 698.2 35C712.7 44.3 727.3 53.7 741.8 51.3C756.3 49 770.7 35 785.2 29.7C799.7 24.3 814.3 27.7 829 30.7C843.7 33.7 858.3 36.3 872.8 39.7C887.3 43 901.7 47 916.2 43.3C930.7 39.7 945.3 28.3 952.7 22.7L960 17L960 0L952.7 0C945.3 0 930.7 0 916.2 0C901.7 0 887.3 0 872.8 0C858.3 0 843.7 0 829 0C814.3 0 799.7 0 785.2 0C770.7 0 756.3 0 741.8 0C727.3 0 712.7 0 698.2 0C683.7 0 669.3 0 654.8 0C640.3 0 625.7 0 611 0C596.3 0 581.7 0 567.2 0C552.7 0 538.3 0 523.8 0C509.3 0 494.7 0 480 0C465.3 0 450.7 0 436.2 0C421.7 0 407.3 0 392.8 0C378.3 0 363.7 0 349 0C334.3 0 319.7 0 305.2 0C290.7 0 276.3 0 261.8 0C247.3 0 232.7 0 218.2 0C203.7 0 189.3 0 174.8 0C160.3 0 145.7 0 131 0C116.3 0 101.7 0 87.2 0C72.7 0 58.3 0 43.8 0C29.3 0 14.7 0 7.3 0L0 0Z" fill="#4a28ff"></path><path d="M0 69L7.3 66C14.7 63 29.3 57 43.8 54.7C58.3 52.3 72.7 53.7 87.2 60C101.7 66.3 116.3 77.7 131 73.7C145.7 69.7 160.3 50.3 174.8 44.7C189.3 39 203.7 47 218.2 52C232.7 57 247.3 59 261.8 59C276.3 59 290.7 57 305.2 52C319.7 47 334.3 39 349 35.7C363.7 32.3 378.3 33.7 392.8 33C407.3 32.3 421.7 29.7 436.2 41.3C450.7 53 465.3 79 480 85.7C494.7 92.3 509.3 79.7 523.8 76C538.3 72.3 552.7 77.7 567.2 76C581.7 74.3 596.3 65.7 611 53.7C625.7 41.7 640.3 26.3 654.8 23.3C669.3 20.3 683.7 29.7 698.2 41.3C712.7 53 727.3 67 741.8 66.3C756.3 65.7 770.7 50.3 785.2 45.3C799.7 40.3 814.3 45.7 829 51.7C843.7 57.7 858.3 64.3 872.8 67C887.3 69.7 901.7 68.3 916.2 60.7C930.7 53 945.3 39 952.7 32L960 25L960 15L952.7 20.7C945.3 26.3 930.7 37.7 916.2 41.3C901.7 45 887.3 41 872.8 37.7C858.3 34.3 843.7 31.7 829 28.7C814.3 25.7 799.7 22.3 785.2 27.7C770.7 33 756.3 47 741.8 49.3C727.3 51.7 712.7 42.3 698.2 33C683.7 23.7 669.3 14.3 654.8 17.3C640.3 20.3 625.7 35.7 611 44C596.3 52.3 581.7 53.7 567.2 52.3C552.7 51 538.3 47 523.8 50.3C509.3 53.7 494.7 64.3 480 59.3C465.3 54.3 450.7 33.7 436.2 22C421.7 10.3 407.3 7.7 392.8 7.3C378.3 7 363.7 9 349 12.7C334.3 16.3 319.7 21.7 305.2 27C290.7 32.3 276.3 37.7 261.8 40.3C247.3 43 232.7 43 218.2 40C203.7 37 189.3 31 174.8 35C160.3 39 145.7 53 131 54.7C116.3 56.3 101.7 45.7 87.2 40C72.7 34.3 58.3 33.7 43.8 34C29.3 34.3 14.7 35.7 7.3 36.3L0 37Z" fill="#9d00e4"></path><path d="M0 89L7.3 84.3C14.7 79.7 29.3 70.3 43.8 68C58.3 65.7 72.7 70.3 87.2 78C101.7 85.7 116.3 96.3 131 91C145.7 85.7 160.3 64.3 174.8 58.3C189.3 52.3 203.7 61.7 218.2 65.7C232.7 69.7 247.3 68.3 261.8 67.7C276.3 67 290.7 67 305.2 61.7C319.7 56.3 334.3 45.7 349 42.7C363.7 39.7 378.3 44.3 392.8 46C407.3 47.7 421.7 46.3 436.2 56C450.7 65.7 465.3 86.3 480 90.7C494.7 95 509.3 83 523.8 82C538.3 81 552.7 91 567.2 92.3C581.7 93.7 596.3 86.3 611 74C625.7 61.7 640.3 44.3 654.8 41C669.3 37.7 683.7 48.3 698.2 58C712.7 67.7 727.3 76.3 741.8 73.3C756.3 70.3 770.7 55.7 785.2 53.7C799.7 51.7 814.3 62.3 829 69.7C843.7 77 858.3 81 872.8 83.7C887.3 86.3 901.7 87.7 916.2 80.3C930.7 73 945.3 57 952.7 49L960 41L960 23L952.7 30C945.3 37 930.7 51 916.2 58.7C901.7 66.3 887.3 67.7 872.8 65C858.3 62.3 843.7 55.7 829 49.7C814.3 43.7 799.7 38.3 785.2 43.3C770.7 48.3 756.3 63.7 741.8 64.3C727.3 65 712.7 51 698.2 39.3C683.7 27.7 669.3 18.3 654.8 21.3C640.3 24.3 625.7 39.7 611 51.7C596.3 63.7 581.7 72.3 567.2 74C552.7 75.7 538.3 70.3 523.8 74C509.3 77.7 494.7 90.3 480 83.7C465.3 77 450.7 51 436.2 39.3C421.7 27.7 407.3 30.3 392.8 31C378.3 31.7 363.7 30.3 349 33.7C334.3 37 319.7 45 305.2 50C290.7 55 276.3 57 261.8 57C247.3 57 232.7 55 218.2 50C203.7 45 189.3 37 174.8 42.7C160.3 48.3 145.7 67.7 131 71.7C116.3 75.7 101.7 64.3 87.2 58C72.7 51.7 58.3 50.3 43.8 52.7C29.3 55 14.7 61 7.3 64L0 67Z" fill="#c800c8"></path><path d="M0 97L7.3 93.7C14.7 90.3 29.3 83.7 43.8 81.3C58.3 79 72.7 81 87.2 88.7C101.7 96.3 116.3 109.7 131 105.7C145.7 101.7 160.3 80.3 174.8 73.3C189.3 66.3 203.7 73.7 218.2 77.7C232.7 81.7 247.3 82.3 261.8 80.7C276.3 79 290.7 75 305.2 69C319.7 63 334.3 55 349 52.3C363.7 49.7 378.3 52.3 392.8 53C407.3 53.7 421.7 52.3 436.2 62.3C450.7 72.3 465.3 93.7 480 98.7C494.7 103.7 509.3 92.3 523.8 90C538.3 87.7 552.7 94.3 567.2 94.3C581.7 94.3 596.3 87.7 611 77C625.7 66.3 640.3 51.7 654.8 49C669.3 46.3 683.7 55.7 698.2 64.7C712.7 73.7 727.3 82.3 741.8 80.7C756.3 79 770.7 67 785.2 66.3C799.7 65.7 814.3 76.3 829 82.3C843.7 88.3 858.3 89.7 872.8 90.7C887.3 91.7 901.7 92.3 916.2 86.7C930.7 81 945.3 69 952.7 63L960 57L960 39L952.7 47C945.3 55 930.7 71 916.2 78.3C901.7 85.7 887.3 84.3 872.8 81.7C858.3 79 843.7 75 829 67.7C814.3 60.3 799.7 49.7 785.2 51.7C770.7 53.7 756.3 68.3 741.8 71.3C727.3 74.3 712.7 65.7 698.2 56C683.7 46.3 669.3 35.7 654.8 39C640.3 42.3 625.7 59.7 611 72C596.3 84.3 581.7 91.7 567.2 90.3C552.7 89 538.3 79 523.8 80C509.3 81 494.7 93 480 88.7C465.3 84.3 450.7 63.7 436.2 54C421.7 44.3 407.3 45.7 392.8 44C378.3 42.3 363.7 37.7 349 40.7C334.3 43.7 319.7 54.3 305.2 59.7C290.7 65 276.3 65 261.8 65.7C247.3 66.3 232.7 67.7 218.2 63.7C203.7 59.7 189.3 50.3 174.8 56.3C160.3 62.3 145.7 83.7 131 89C116.3 94.3 101.7 83.7 87.2 76C72.7 68.3 58.3 63.7 43.8 66C29.3 68.3 14.7 77.7 7.3 82.3L0 87Z" fill="#e300ac"></path><path d="M0 99L7.3 97C14.7 95 29.3 91 43.8 90.7C58.3 90.3 72.7 93.7 87.2 102C101.7 110.3 116.3 123.7 131 119C145.7 114.3 160.3 91.7 174.8 83C189.3 74.3 203.7 79.7 218.2 84.3C232.7 89 247.3 93 261.8 92.7C276.3 92.3 290.7 87.7 305.2 80.3C319.7 73 334.3 63 349 58.7C363.7 54.3 378.3 55.7 392.8 55.7C407.3 55.7 421.7 54.3 436.2 64.3C450.7 74.3 465.3 95.7 480 102C494.7 108.3 509.3 99.7 523.8 98.3C538.3 97 552.7 103 567.2 102.7C581.7 102.3 596.3 95.7 611 85.3C625.7 75 640.3 61 654.8 58.3C669.3 55.7 683.7 64.3 698.2 71.7C712.7 79 727.3 85 741.8 82.3C756.3 79.7 770.7 68.3 785.2 69C799.7 69.7 814.3 82.3 829 89.3C843.7 96.3 858.3 97.7 872.8 99.7C887.3 101.7 901.7 104.3 916.2 97.7C930.7 91 945.3 75 952.7 67L960 59L960 55L952.7 61C945.3 67 930.7 79 916.2 84.7C901.7 90.3 887.3 89.7 872.8 88.7C858.3 87.7 843.7 86.3 829 80.3C814.3 74.3 799.7 63.7 785.2 64.3C770.7 65 756.3 77 741.8 78.7C727.3 80.3 712.7 71.7 698.2 62.7C683.7 53.7 669.3 44.3 654.8 47C640.3 49.7 625.7 64.3 611 75C596.3 85.7 581.7 92.3 567.2 92.3C552.7 92.3 538.3 85.7 523.8 88C509.3 90.3 494.7 101.7 480 96.7C465.3 91.7 450.7 70.3 436.2 60.3C421.7 50.3 407.3 51.7 392.8 51C378.3 50.3 363.7 47.7 349 50.3C334.3 53 319.7 61 305.2 67C290.7 73 276.3 77 261.8 78.7C247.3 80.3 232.7 79.7 218.2 75.7C203.7 71.7 189.3 64.3 174.8 71.3C160.3 78.3 145.7 99.7 131 103.7C116.3 107.7 101.7 94.3 87.2 86.7C72.7 79 58.3 77 43.8 79.3C29.3 81.7 14.7 88.3 7.3 91.7L0 95Z" fill="#f40092"></path><path d="M0 101L7.3 100.3C14.7 99.7 29.3 98.3 43.8 100C58.3 101.7 72.7 106.3 87.2 115.3C101.7 124.3 116.3 137.7 131 133.7C145.7 129.7 160.3 108.3 174.8 98.7C189.3 89 203.7 91 218.2 94C232.7 97 247.3 101 261.8 101C276.3 101 290.7 97 305.2 91.3C319.7 85.7 334.3 78.3 349 73.7C363.7 69 378.3 67 392.8 65.3C407.3 63.7 421.7 62.3 436.2 72.7C450.7 83 465.3 105 480 113C494.7 121 509.3 115 523.8 115.3C538.3 115.7 552.7 122.3 567.2 122.3C581.7 122.3 596.3 115.7 611 103.7C625.7 91.7 640.3 74.3 654.8 70C669.3 65.7 683.7 74.3 698.2 82C712.7 89.7 727.3 96.3 741.8 94.7C756.3 93 770.7 83 785.2 84.7C799.7 86.3 814.3 99.7 829 106.7C843.7 113.7 858.3 114.3 872.8 115.3C887.3 116.3 901.7 117.7 916.2 110.3C930.7 103 945.3 87 952.7 79L960 71L960 57L952.7 65C945.3 73 930.7 89 916.2 95.7C901.7 102.3 887.3 99.7 872.8 97.7C858.3 95.7 843.7 94.3 829 87.3C814.3 80.3 799.7 67.7 785.2 67C770.7 66.3 756.3 77.7 741.8 80.3C727.3 83 712.7 77 698.2 69.7C683.7 62.3 669.3 53.7 654.8 56.3C640.3 59 625.7 73 611 83.3C596.3 93.7 581.7 100.3 567.2 100.7C552.7 101 538.3 95 523.8 96.3C509.3 97.7 494.7 106.3 480 100C465.3 93.7 450.7 72.3 436.2 62.3C421.7 52.3 407.3 53.7 392.8 53.7C378.3 53.7 363.7 52.3 349 56.7C334.3 61 319.7 71 305.2 78.3C290.7 85.7 276.3 90.3 261.8 90.7C247.3 91 232.7 87 218.2 82.3C203.7 77.7 189.3 72.3 174.8 81C160.3 89.7 145.7 112.3 131 117C116.3 121.7 101.7 108.3 87.2 100C72.7 91.7 58.3 88.3 43.8 88.7C29.3 89 14.7 93 7.3 95L0 97Z" fill="#fd007c"></path><path d="M0 115L7.3 118.3C14.7 121.7 29.3 128.3 43.8 132.3C58.3 136.3 72.7 137.7 87.2 143C101.7 148.3 116.3 157.7 131 150C145.7 142.3 160.3 117.7 174.8 109.3C189.3 101 203.7 109 218.2 118.3C232.7 127.7 247.3 138.3 261.8 138.7C276.3 139 290.7 129 305.2 117.3C319.7 105.7 334.3 92.3 349 89.7C363.7 87 378.3 95 392.8 92.7C407.3 90.3 421.7 77.7 436.2 83.3C450.7 89 465.3 113 480 126C494.7 139 509.3 141 523.8 142.3C538.3 143.7 552.7 144.3 567.2 144C581.7 143.7 596.3 142.3 611 133.3C625.7 124.3 640.3 107.7 654.8 103.3C669.3 99 683.7 107 698.2 113.7C712.7 120.3 727.3 125.7 741.8 126.7C756.3 127.7 770.7 124.3 785.2 125.7C799.7 127 814.3 133 829 137.7C843.7 142.3 858.3 145.7 872.8 147.3C887.3 149 901.7 149 916.2 141.7C930.7 134.3 945.3 119.7 952.7 112.3L960 105L960 69L952.7 77C945.3 85 930.7 101 916.2 108.3C901.7 115.7 887.3 114.3 872.8 113.3C858.3 112.3 843.7 111.7 829 104.7C814.3 97.7 799.7 84.3 785.2 82.7C770.7 81 756.3 91 741.8 92.7C727.3 94.3 712.7 87.7 698.2 80C683.7 72.3 669.3 63.7 654.8 68C640.3 72.3 625.7 89.7 611 101.7C596.3 113.7 581.7 120.3 567.2 120.3C552.7 120.3 538.3 113.7 523.8 113.3C509.3 113 494.7 119 480 111C465.3 103 450.7 81 436.2 70.7C421.7 60.3 407.3 61.7 392.8 63.3C378.3 65 363.7 67 349 71.7C334.3 76.3 319.7 83.7 305.2 89.3C290.7 95 276.3 99 261.8 99C247.3 99 232.7 95 218.2 92C203.7 89 189.3 87 174.8 96.7C160.3 106.3 145.7 127.7 131 131.7C116.3 135.7 101.7 122.3 87.2 113.3C72.7 104.3 58.3 99.7 43.8 98C29.3 96.3 14.7 97.7 7.3 98.3L0 99Z" fill="#ff2469"></path><path d="M0 123L7.3 126.7C14.7 130.3 29.3 137.7 43.8 142.3C58.3 147 72.7 149 87.2 153.7C101.7 158.3 116.3 165.7 131 157.3C145.7 149 160.3 125 174.8 117C189.3 109 203.7 117 218.2 125.7C232.7 134.3 247.3 143.7 261.8 144.7C276.3 145.7 290.7 138.3 305.2 128C319.7 117.7 334.3 104.3 349 100C363.7 95.7 378.3 100.3 392.8 98C407.3 95.7 421.7 86.3 436.2 92.7C450.7 99 465.3 121 480 132.7C494.7 144.3 509.3 145.7 523.8 148C538.3 150.3 552.7 153.7 567.2 154.7C581.7 155.7 596.3 154.3 611 145C625.7 135.7 640.3 118.3 654.8 113C669.3 107.7 683.7 114.3 698.2 119.3C712.7 124.3 727.3 127.7 741.8 129C756.3 130.3 770.7 129.7 785.2 131C799.7 132.3 814.3 135.7 829 140.7C843.7 145.7 858.3 152.3 872.8 156C887.3 159.7 901.7 160.3 916.2 153.3C930.7 146.3 945.3 131.7 952.7 124.3L960 117L960 103L952.7 110.3C945.3 117.7 930.7 132.3 916.2 139.7C901.7 147 887.3 147 872.8 145.3C858.3 143.7 843.7 140.3 829 135.7C814.3 131 799.7 125 785.2 123.7C770.7 122.3 756.3 125.7 741.8 124.7C727.3 123.7 712.7 118.3 698.2 111.7C683.7 105 669.3 97 654.8 101.3C640.3 105.7 625.7 122.3 611 131.3C596.3 140.3 581.7 141.7 567.2 142C552.7 142.3 538.3 141.7 523.8 140.3C509.3 139 494.7 137 480 124C465.3 111 450.7 87 436.2 81.3C421.7 75.7 407.3 88.3 392.8 90.7C378.3 93 363.7 85 349 87.7C334.3 90.3 319.7 103.7 305.2 115.3C290.7 127 276.3 137 261.8 136.7C247.3 136.3 232.7 125.7 218.2 116.3C203.7 107 189.3 99 174.8 107.3C160.3 115.7 145.7 140.3 131 148C116.3 155.7 101.7 146.3 87.2 141C72.7 135.7 58.3 134.3 43.8 130.3C29.3 126.3 14.7 119.7 7.3 116.3L0 113Z" fill="#ff4959"></path><path d="M0 155L7.3 158C14.7 161 29.3 167 43.8 168C58.3 169 72.7 165 87.2 166.7C101.7 168.3 116.3 175.7 131 178.7C145.7 181.7 160.3 180.3 174.8 177.7C189.3 175 203.7 171 218.2 169.3C232.7 167.7 247.3 168.3 261.8 166.3C276.3 164.3 290.7 159.7 305.2 157.3C319.7 155 334.3 155 349 157.7C363.7 160.3 378.3 165.7 392.8 164.7C407.3 163.7 421.7 156.3 436.2 157.3C450.7 158.3 465.3 167.7 480 170.3C494.7 173 509.3 169 523.8 170.3C538.3 171.7 552.7 178.3 567.2 179.7C581.7 181 596.3 177 611 173.3C625.7 169.7 640.3 166.3 654.8 165.3C669.3 164.3 683.7 165.7 698.2 164.7C712.7 163.7 727.3 160.3 741.8 161.3C756.3 162.3 770.7 167.7 785.2 167.7C799.7 167.7 814.3 162.3 829 165.3C843.7 168.3 858.3 179.7 872.8 183.3C887.3 187 901.7 183 916.2 180C930.7 177 945.3 175 952.7 174L960 173L960 115L952.7 122.3C945.3 129.7 930.7 144.3 916.2 151.3C901.7 158.3 887.3 157.7 872.8 154C858.3 150.3 843.7 143.7 829 138.7C814.3 133.7 799.7 130.3 785.2 129C770.7 127.7 756.3 128.3 741.8 127C727.3 125.7 712.7 122.3 698.2 117.3C683.7 112.3 669.3 105.7 654.8 111C640.3 116.3 625.7 133.7 611 143C596.3 152.3 581.7 153.7 567.2 152.7C552.7 151.7 538.3 148.3 523.8 146C509.3 143.7 494.7 142.3 480 130.7C465.3 119 450.7 97 436.2 90.7C421.7 84.3 407.3 93.7 392.8 96C378.3 98.3 363.7 93.7 349 98C334.3 102.3 319.7 115.7 305.2 126C290.7 136.3 276.3 143.7 261.8 142.7C247.3 141.7 232.7 132.3 218.2 123.7C203.7 115 189.3 107 174.8 115C160.3 123 145.7 147 131 155.3C116.3 163.7 101.7 156.3 87.2 151.7C72.7 147 58.3 145 43.8 140.3C29.3 135.7 14.7 128.3 7.3 124.7L0 121Z" fill="#ff664b"></path><path d="M0 179L7.3 178.3C14.7 177.7 29.3 176.3 43.8 176.3C58.3 176.3 72.7 177.7 87.2 179.3C101.7 181 116.3 183 131 184C145.7 185 160.3 185 174.8 184.7C189.3 184.3 203.7 183.7 218.2 182.3C232.7 181 247.3 179 261.8 176.3C276.3 173.7 290.7 170.3 305.2 170.3C319.7 170.3 334.3 173.7 349 175C363.7 176.3 378.3 175.7 392.8 174C407.3 172.3 421.7 169.7 436.2 170.3C450.7 171 465.3 175 480 175.3C494.7 175.7 509.3 172.3 523.8 174.3C538.3 176.3 552.7 183.7 567.2 185.3C581.7 187 596.3 183 611 181.3C625.7 179.7 640.3 180.3 654.8 182.7C669.3 185 683.7 189 698.2 188C712.7 187 727.3 181 741.8 178.7C756.3 176.3 770.7 177.7 785.2 178.7C799.7 179.7 814.3 180.3 829 182.7C843.7 185 858.3 189 872.8 191C887.3 193 901.7 193 916.2 191.7C930.7 190.3 945.3 187.7 952.7 186.3L960 185L960 171L952.7 172C945.3 173 930.7 175 916.2 178C901.7 181 887.3 185 872.8 181.3C858.3 177.7 843.7 166.3 829 163.3C814.3 160.3 799.7 165.7 785.2 165.7C770.7 165.7 756.3 160.3 741.8 159.3C727.3 158.3 712.7 161.7 698.2 162.7C683.7 163.7 669.3 162.3 654.8 163.3C640.3 164.3 625.7 167.7 611 171.3C596.3 175 581.7 179 567.2 177.7C552.7 176.3 538.3 169.7 523.8 168.3C509.3 167 494.7 171 480 168.3C465.3 165.7 450.7 156.3 436.2 155.3C421.7 154.3 407.3 161.7 392.8 162.7C378.3 163.7 363.7 158.3 349 155.7C334.3 153 319.7 153 305.2 155.3C290.7 157.7 276.3 162.3 261.8 164.3C247.3 166.3 232.7 165.7 218.2 167.3C203.7 169 189.3 173 174.8 175.7C160.3 178.3 145.7 179.7 131 176.7C116.3 173.7 101.7 166.3 87.2 164.7C72.7 163 58.3 167 43.8 166C29.3 165 14.7 159 7.3 156L0 153Z" fill="#ff8040"></path><path d="M0 197L7.3 195.7C14.7 194.3 29.3 191.7 43.8 189.7C58.3 187.7 72.7 186.3 87.2 187.3C101.7 188.3 116.3 191.7 131 193.3C145.7 195 160.3 195 174.8 194C189.3 193 203.7 191 218.2 190C232.7 189 247.3 189 261.8 188.3C276.3 187.7 290.7 186.3 305.2 186C319.7 185.7 334.3 186.3 349 188.7C363.7 191 378.3 195 392.8 195.3C407.3 195.7 421.7 192.3 436.2 192C450.7 191.7 465.3 194.3 480 194C494.7 193.7 509.3 190.3 523.8 190.3C538.3 190.3 552.7 193.7 567.2 195.3C581.7 197 596.3 197 611 195.7C625.7 194.3 640.3 191.7 654.8 191.3C669.3 191 683.7 193 698.2 193C712.7 193 727.3 191 741.8 189.3C756.3 187.7 770.7 186.3 785.2 187C799.7 187.7 814.3 190.3 829 192.7C843.7 195 858.3 197 872.8 197.7C887.3 198.3 901.7 197.7 916.2 195.7C930.7 193.7 945.3 190.3 952.7 188.7L960 187L960 183L952.7 184.3C945.3 185.7 930.7 188.3 916.2 189.7C901.7 191 887.3 191 872.8 189C858.3 187 843.7 183 829 180.7C814.3 178.3 799.7 177.7 785.2 176.7C770.7 175.7 756.3 174.3 741.8 176.7C727.3 179 712.7 185 698.2 186C683.7 187 669.3 183 654.8 180.7C640.3 178.3 625.7 177.7 611 179.3C596.3 181 581.7 185 567.2 183.3C552.7 181.7 538.3 174.3 523.8 172.3C509.3 170.3 494.7 173.7 480 173.3C465.3 173 450.7 169 436.2 168.3C421.7 167.7 407.3 170.3 392.8 172C378.3 173.7 363.7 174.3 349 173C334.3 171.7 319.7 168.3 305.2 168.3C290.7 168.3 276.3 171.7 261.8 174.3C247.3 177 232.7 179 218.2 180.3C203.7 181.7 189.3 182.3 174.8 182.7C160.3 183 145.7 183 131 182C116.3 181 101.7 179 87.2 177.3C72.7 175.7 58.3 174.3 43.8 174.3C29.3 174.3 14.7 175.7 7.3 176.3L0 177Z" fill="#ff993a"></path><path d="M0 201L7.3 201C14.7 201 29.3 201 43.8 201C58.3 201 72.7 201 87.2 201C101.7 201 116.3 201 131 201C145.7 201 160.3 201 174.8 201C189.3 201 203.7 201 218.2 201C232.7 201 247.3 201 261.8 201C276.3 201 290.7 201 305.2 201C319.7 201 334.3 201 349 201C363.7 201 378.3 201 392.8 201C407.3 201 421.7 201 436.2 201C450.7 201 465.3 201 480 201C494.7 201 509.3 201 523.8 201C538.3 201 552.7 201 567.2 201C581.7 201 596.3 201 611 201C625.7 201 640.3 201 654.8 201C669.3 201 683.7 201 698.2 201C712.7 201 727.3 201 741.8 201C756.3 201 770.7 201 785.2 201C799.7 201 814.3 201 829 201C843.7 201 858.3 201 872.8 201C887.3 201 901.7 201 916.2 201C930.7 201 945.3 201 952.7 201L960 201L960 185L952.7 186.7C945.3 188.3 930.7 191.7 916.2 193.7C901.7 195.7 887.3 196.3 872.8 195.7C858.3 195 843.7 193 829 190.7C814.3 188.3 799.7 185.7 785.2 185C770.7 184.3 756.3 185.7 741.8 187.3C727.3 189 712.7 191 698.2 191C683.7 191 669.3 189 654.8 189.3C640.3 189.7 625.7 192.3 611 193.7C596.3 195 581.7 195 567.2 193.3C552.7 191.7 538.3 188.3 523.8 188.3C509.3 188.3 494.7 191.7 480 192C465.3 192.3 450.7 189.7 436.2 190C421.7 190.3 407.3 193.7 392.8 193.3C378.3 193 363.7 189 349 186.7C334.3 184.3 319.7 183.7 305.2 184C290.7 184.3 276.3 185.7 261.8 186.3C247.3 187 232.7 187 218.2 188C203.7 189 189.3 191 174.8 192C160.3 193 145.7 193 131 191.3C116.3 189.7 101.7 186.3 87.2 185.3C72.7 184.3 58.3 185.7 43.8 187.7C29.3 189.7 14.7 192.3 7.3 193.7L0 195Z" fill="#fcaf3c"></path></svg>