<svg id="visual" viewBox="0 0 960 200" width="960" height="200" xmlns="http://www.w3.org/2000/svg" xmlns:xlink="http://www.w3.org/1999/xlink" version="1.1"><path d="M0 67L13.3 61.7C26.7 56.3 53.3 45.7 80 42.3C106.7 39 133.3 43 160 45.7C186.7 48.3 213.3 49.7 240 48.3C266.7 47 293.3 43 320 41C346.7 39 373.3 39 400 38.7C426.7 38.3 453.3 37.7 480 46.7C506.7 55.7 533.3 74.3 560 73C586.7 71.7 613.3 50.3 640 46.3C666.7 42.3 693.3 55.7 720 59C746.7 62.3 773.3 55.7 800 56C826.7 56.3 853.3 63.7 880 68.7C906.7 73.7 933.3 76.3 946.7 77.7L960 79L960 0L946.7 0C933.3 0 906.7 0 880 0C853.3 0 826.7 0 800 0C773.3 0 746.7 0 720 0C693.3 0 666.7 0 640 0C613.3 0 586.7 0 560 0C533.3 0 506.7 0 480 0C453.3 0 426.7 0 400 0C373.3 0 346.7 0 320 0C293.3 0 266.7 0 240 0C213.3 0 186.7 0 160 0C133.3 0 106.7 0 80 0C53.3 0 26.7 0 13.3 0L0 0Z" fill="#ff5760"></path><path d="M0 99L13.3 90.7C26.7 82.3 53.3 65.7 80 60.7C106.7 55.7 133.3 62.3 160 66C186.7 69.7 213.3 70.3 240 69C266.7 67.7 293.3 64.3 320 63.7C346.7 63 373.3 65 400 64C426.7 63 453.3 59 480 66C506.7 73 533.3 91 560 91.7C586.7 92.3 613.3 75.7 640 74.3C666.7 73 693.3 87 720 92C746.7 97 773.3 93 800 90.3C826.7 87.7 853.3 86.3 880 91.3C906.7 96.3 933.3 107.7 946.7 113.3L960 119L960 77L946.7 75.7C933.3 74.3 906.7 71.7 880 66.7C853.3 61.7 826.7 54.3 800 54C773.3 53.7 746.7 60.3 720 57C693.3 53.7 666.7 40.3 640 44.3C613.3 48.3 586.7 69.7 560 71C533.3 72.3 506.7 53.7 480 44.7C453.3 35.7 426.7 36.3 400 36.7C373.3 37 346.7 37 320 39C293.3 41 266.7 45 240 46.3C213.3 47.7 186.7 46.3 160 43.7C133.3 41 106.7 37 80 40.3C53.3 43.7 26.7 54.3 13.3 59.7L0 65Z" fill="#fa5399"></path><path d="M0 127L13.3 118.3C26.7 109.7 53.3 92.3 80 91.3C106.7 90.3 133.3 105.7 160 109C186.7 112.3 213.3 103.7 240 102.7C266.7 101.7 293.3 108.3 320 108C346.7 107.7 373.3 100.3 400 95C426.7 89.7 453.3 86.3 480 94C506.7 101.7 533.3 120.3 560 121.7C586.7 123 613.3 107 640 103.7C666.7 100.3 693.3 109.7 720 112.3C746.7 115 773.3 111 800 111.3C826.7 111.7 853.3 116.3 880 122.3C906.7 128.3 933.3 135.7 946.7 139.3L960 143L960 117L946.7 111.3C933.3 105.7 906.7 94.3 880 89.3C853.3 84.3 826.7 85.7 800 88.3C773.3 91 746.7 95 720 90C693.3 85 666.7 71 640 72.3C613.3 73.7 586.7 90.3 560 89.7C533.3 89 506.7 71 480 64C453.3 57 426.7 61 400 62C373.3 63 346.7 61 320 61.7C293.3 62.3 266.7 65.7 240 67C213.3 68.3 186.7 67.7 160 64C133.3 60.3 106.7 53.7 80 58.7C53.3 63.7 26.7 80.3 13.3 88.7L0 97Z" fill="#d967cd"></path><path d="M0 161L13.3 151C26.7 141 53.3 121 80 117C106.7 113 133.3 125 160 129C186.7 133 213.3 129 240 129.3C266.7 129.7 293.3 134.3 320 134.3C346.7 134.3 373.3 129.7 400 124.3C426.7 119 453.3 113 480 119.7C506.7 126.3 533.3 145.7 560 148.3C586.7 151 613.3 137 640 132.7C666.7 128.3 693.3 133.7 720 133C746.7 132.3 773.3 125.7 800 128C826.7 130.3 853.3 141.7 880 149.7C906.7 157.7 933.3 162.3 946.7 164.7L960 167L960 141L946.7 137.3C933.3 133.7 906.7 126.3 880 120.3C853.3 114.3 826.7 109.7 800 109.3C773.3 109 746.7 113 720 110.3C693.3 107.7 666.7 98.3 640 101.7C613.3 105 586.7 121 560 119.7C533.3 118.3 506.7 99.7 480 92C453.3 84.3 426.7 87.7 400 93C373.3 98.3 346.7 105.7 320 106C293.3 106.3 266.7 99.7 240 100.7C213.3 101.7 186.7 110.3 160 107C133.3 103.7 106.7 88.3 80 89.3C53.3 90.3 26.7 107.7 13.3 116.3L0 125Z" fill="#9a81f2"></path><path d="M0 201L13.3 201C26.7 201 53.3 201 80 201C106.7 201 133.3 201 160 201C186.7 201 213.3 201 240 201C266.7 201 293.3 201 320 201C346.7 201 373.3 201 400 201C426.7 201 453.3 201 480 201C506.7 201 533.3 201 560 201C586.7 201 613.3 201 640 201C666.7 201 693.3 201 720 201C746.7 201 773.3 201 800 201C826.7 201 853.3 201 880 201C906.7 201 933.3 201 946.7 201L960 201L960 165L946.7 162.7C933.3 160.3 906.7 155.7 880 147.7C853.3 139.7 826.7 128.3 800 126C773.3 123.7 746.7 130.3 720 131C693.3 131.7 666.7 126.3 640 130.7C613.3 135 586.7 149 560 146.3C533.3 143.7 506.7 124.3 480 117.7C453.3 111 426.7 117 400 122.3C373.3 127.7 346.7 132.3 320 132.3C293.3 132.3 266.7 127.7 240 127.3C213.3 127 186.7 131 160 127C133.3 123 106.7 111 80 115C53.3 119 26.7 139 13.3 149L0 159Z" fill="#0095ff"></path></svg>