<svg id="visual" viewBox="0 0 900 200" width="900" height="200" xmlns="http://www.w3.org/2000/svg" xmlns:xlink="http://www.w3.org/1999/xlink" version="1.1"><path d="M0 15L13.7 16C27.3 17 54.7 19 82 19.7C109.3 20.3 136.7 19.7 163.8 19.7C191 19.7 218 20.3 245.2 19.7C272.3 19 299.7 17 327 17C354.3 17 381.7 19 409 18.7C436.3 18.3 463.7 15.7 491 15.7C518.3 15.7 545.7 18.3 573 18.7C600.3 19 627.7 17 654.8 16C682 15 709 15 736.2 14.7C763.3 14.3 790.7 13.7 818 13.3C845.3 13 872.7 13 886.3 13L900 13L900 0L886.3 0C872.7 0 845.3 0 818 0C790.7 0 763.3 0 736.2 0C709 0 682 0 654.8 0C627.7 0 600.3 0 573 0C545.7 0 518.3 0 491 0C463.7 0 436.3 0 409 0C381.7 0 354.3 0 327 0C299.7 0 272.3 0 245.2 0C218 0 191 0 163.8 0C136.7 0 109.3 0 82 0C54.7 0 27.3 0 13.7 0L0 0Z" fill="#ff4a53"></path><path d="M0 65L13.7 65.3C27.3 65.7 54.7 66.3 82 65.3C109.3 64.3 136.7 61.7 163.8 65C191 68.3 218 77.7 245.2 80.3C272.3 83 299.7 79 327 77.7C354.3 76.3 381.7 77.7 409 75.7C436.3 73.7 463.7 68.3 491 65C518.3 61.7 545.7 60.3 573 60.7C600.3 61 627.7 63 654.8 64C682 65 709 65 736.2 63.3C763.3 61.7 790.7 58.3 818 59.3C845.3 60.3 872.7 65.7 886.3 68.3L900 71L900 11L886.3 11C872.7 11 845.3 11 818 11.3C790.7 11.7 763.3 12.3 736.2 12.7C709 13 682 13 654.8 14C627.7 15 600.3 17 573 16.7C545.7 16.3 518.3 13.7 491 13.7C463.7 13.7 436.3 16.3 409 16.7C381.7 17 354.3 15 327 15C299.7 15 272.3 17 245.2 17.7C218 18.3 191 17.7 163.8 17.7C136.7 17.7 109.3 18.3 82 17.7C54.7 17 27.3 15 13.7 14L0 13Z" fill="#ff437d"></path><path d="M0 99L13.7 98.7C27.3 98.3 54.7 97.7 82 95.7C109.3 93.7 136.7 90.3 163.8 93C191 95.7 218 104.3 245.2 105.7C272.3 107 299.7 101 327 100.3C354.3 99.7 381.7 104.3 409 105C436.3 105.7 463.7 102.3 491 97.3C518.3 92.3 545.7 85.7 573 87C600.3 88.3 627.7 97.7 654.8 102C682 106.3 709 105.7 736.2 103.3C763.3 101 790.7 97 818 96.3C845.3 95.7 872.7 98.3 886.3 99.7L900 101L900 69L886.3 66.3C872.7 63.7 845.3 58.3 818 57.3C790.7 56.3 763.3 59.7 736.2 61.3C709 63 682 63 654.8 62C627.7 61 600.3 59 573 58.7C545.7 58.3 518.3 59.7 491 63C463.7 66.3 436.3 71.7 409 73.7C381.7 75.7 354.3 74.3 327 75.7C299.7 77 272.3 81 245.2 78.3C218 75.7 191 66.3 163.8 63C136.7 59.7 109.3 62.3 82 63.3C54.7 64.3 27.3 63.7 13.7 63.3L0 63Z" fill="#f54da6"></path><path d="M0 121L13.7 120.3C27.3 119.7 54.7 118.3 82 117.3C109.3 116.3 136.7 115.7 163.8 119C191 122.3 218 129.7 245.2 131C272.3 132.3 299.7 127.7 327 127.3C354.3 127 381.7 131 409 131.3C436.3 131.7 463.7 128.3 491 123C518.3 117.7 545.7 110.3 573 111.3C600.3 112.3 627.7 121.7 654.8 125C682 128.3 709 125.7 736.2 122C763.3 118.3 790.7 113.7 818 113.3C845.3 113 872.7 117 886.3 119L900 121L900 99L886.3 97.7C872.7 96.3 845.3 93.7 818 94.3C790.7 95 763.3 99 736.2 101.3C709 103.7 682 104.3 654.8 100C627.7 95.7 600.3 86.3 573 85C545.7 83.7 518.3 90.3 491 95.3C463.7 100.3 436.3 103.7 409 103C381.7 102.3 354.3 97.7 327 98.3C299.7 99 272.3 105 245.2 103.7C218 102.3 191 93.7 163.8 91C136.7 88.3 109.3 91.7 82 93.7C54.7 95.7 27.3 96.3 13.7 96.7L0 97Z" fill="#db60cb"></path><path d="M0 135L13.7 133.7C27.3 132.3 54.7 129.7 82 128C109.3 126.3 136.7 125.7 163.8 129C191 132.3 218 139.7 245.2 141.3C272.3 143 299.7 139 327 140C354.3 141 381.7 147 409 147.7C436.3 148.3 463.7 143.7 491 138.3C518.3 133 545.7 127 573 127.7C600.3 128.3 627.7 135.7 654.8 138C682 140.3 709 137.7 736.2 134.7C763.3 131.7 790.7 128.3 818 128.3C845.3 128.3 872.7 131.7 886.3 133.3L900 135L900 119L886.3 117C872.7 115 845.3 111 818 111.3C790.7 111.7 763.3 116.3 736.2 120C709 123.7 682 126.3 654.8 123C627.7 119.7 600.3 110.3 573 109.3C545.7 108.3 518.3 115.7 491 121C463.7 126.3 436.3 129.7 409 129.3C381.7 129 354.3 125 327 125.3C299.7 125.7 272.3 130.3 245.2 129C218 127.7 191 120.3 163.8 117C136.7 113.7 109.3 114.3 82 115.3C54.7 116.3 27.3 117.7 13.7 118.3L0 119Z" fill="#b375e8"></path><path d="M0 149L13.7 147.7C27.3 146.3 54.7 143.7 82 142C109.3 140.3 136.7 139.7 163.8 143C191 146.3 218 153.7 245.2 157.3C272.3 161 299.7 161 327 162C354.3 163 381.7 165 409 165.3C436.3 165.7 463.7 164.3 491 160.3C518.3 156.3 545.7 149.7 573 148.7C600.3 147.7 627.7 152.3 654.8 154C682 155.7 709 154.3 736.2 152.3C763.3 150.3 790.7 147.7 818 148.7C845.3 149.7 872.7 154.3 886.3 156.7L900 159L900 133L886.3 131.3C872.7 129.7 845.3 126.3 818 126.3C790.7 126.3 763.3 129.7 736.2 132.7C709 135.7 682 138.3 654.8 136C627.7 133.7 600.3 126.3 573 125.7C545.7 125 518.3 131 491 136.3C463.7 141.7 436.3 146.3 409 145.7C381.7 145 354.3 139 327 138C299.7 137 272.3 141 245.2 139.3C218 137.7 191 130.3 163.8 127C136.7 123.7 109.3 124.3 82 126C54.7 127.7 27.3 130.3 13.7 131.7L0 133Z" fill="#7b87f9"></path><path d="M0 201L13.7 201C27.3 201 54.7 201 82 201C109.3 201 136.7 201 163.8 201C191 201 218 201 245.2 201C272.3 201 299.7 201 327 201C354.3 201 381.7 201 409 201C436.3 201 463.7 201 491 201C518.3 201 545.7 201 573 201C600.3 201 627.7 201 654.8 201C682 201 709 201 736.2 201C763.3 201 790.7 201 818 201C845.3 201 872.7 201 886.3 201L900 201L900 157L886.3 154.7C872.7 152.3 845.3 147.7 818 146.7C790.7 145.7 763.3 148.3 736.2 150.3C709 152.3 682 153.7 654.8 152C627.7 150.3 600.3 145.7 573 146.7C545.7 147.7 518.3 154.3 491 158.3C463.7 162.3 436.3 163.7 409 163.3C381.7 163 354.3 161 327 160C299.7 159 272.3 159 245.2 155.3C218 151.7 191 144.3 163.8 141C136.7 137.7 109.3 138.3 82 140C54.7 141.7 27.3 144.3 13.7 145.7L0 147Z" fill="#0095ff"></path></svg>