<svg id="visual" viewBox="0 0 900 100" width="900" height="100" xmlns="http://www.w3.org/2000/svg" xmlns:xlink="http://www.w3.org/1999/xlink" version="1.1"><rect x="0" y="0" width="900" height="100" fill="#8860D0"></rect><path d="M0 58L21.5 56.8C43 55.7 86 53.3 128.8 53.2C171.7 53 214.3 55 257.2 56.7C300 58.3 343 59.7 385.8 58.2C428.7 56.7 471.3 52.3 514.2 52C557 51.7 600 55.3 642.8 56.8C685.7 58.3 728.3 57.7 771.2 56.2C814 54.7 857 52.3 878.5 51.2L900 50L900 101L878.5 101C857 101 814 101 771.2 101C728.3 101 685.7 101 642.8 101C600 101 557 101 514.2 101C471.3 101 428.7 101 385.8 101C343 101 300 101 257.2 101C214.3 101 171.7 101 128.8 101C86 101 43 101 21.5 101L0 101Z" fill="#00132A" stroke-linecap="round" stroke-linejoin="miter"></path></svg>